<svg width="600" height="420" viewBox="0 0 600 420" fill="none" xmlns="http://www.w3.org/2000/svg"><rect width="600" height="420" fill="#081120"/><circle cx="300" cy="210" r="116" fill="#1B4A7A"/><path d="M222 164C250 142 294 132 340 140C380 146 410 164 424 188C390 176 356 170 318 170C282 170 250 176 222 188V164Z" fill="#56A8C7"/><path d="M200 232C236 210 278 200 324 202C380 204 426 220 452 246C418 270 372 284 320 282C268 280 226 264 200 232Z" fill="#3A86B0"/><ellipse cx="300" cy="228" rx="174" ry="34" stroke="#E8D8A8" stroke-width="14" stroke-opacity="0.8"/></svg>
