<svg width="600" height="420" viewBox="0 0 600 420" fill="none" xmlns="http://www.w3.org/2000/svg"><rect width="600" height="420" fill="#08101C"/><path d="M138 246L184 180L260 154L326 178L364 234L350 298L294 338L220 326L162 290L138 246Z" fill="#7E736C"/><circle cx="214" cy="232" r="18" fill="#665D57"/><circle cx="286" cy="196" r="24" fill="#665D57"/><circle cx="278" cy="274" r="16" fill="#665D57"/><path d="M402 106L442 126L456 166L428 198L384 188L368 146L402 106Z" fill="#8C8179"/><path d="M438 268L472 282L484 316L458 342L424 334L410 302L438 268Z" fill="#948A82"/><path d="M76 120L104 132L112 160L92 182L62 174L50 148L76 120Z" fill="#A0978E"/></svg>
