<svg width="600" height="420" viewBox="0 0 600 420" fill="none" xmlns="http://www.w3.org/2000/svg"><rect width="600" height="420" fill="#0A1526"/><path d="M0 330C115 280 238 256 366 274C453 286 526 312 600 344V420H0V330Z" fill="#123A2D"/><path d="M0 356C117 314 245 300 380 320C471 334 540 356 600 382V420H0V356Z" fill="#F4C542" fill-opacity="0.9"/><path d="M0 378C126 344 253 340 388 360C472 372 543 388 600 404V420H0V378Z" fill="#C0392B"/><circle cx="300" cy="172" r="92" fill="#173F73"/><path d="M300 102L316 152H368L326 184L342 236L300 204L258 236L274 184L232 152H284L300 102Z" fill="#F4C542"/></svg>
