<svg width="600" height="420" viewBox="0 0 600 420" fill="none" xmlns="http://www.w3.org/2000/svg"><rect width="600" height="420" fill="#060C18"/><g fill="#F8FBFF"><circle cx="134" cy="92" r="3"/><circle cx="208" cy="148" r="4"/><circle cx="288" cy="122" r="3"/><circle cx="380" cy="178" r="5"/><circle cx="472" cy="118" r="4"/><circle cx="186" cy="286" r="4"/><circle cx="294" cy="248" r="5"/><circle cx="412" cy="300" r="4"/></g><path d="M134 92L208 148L288 122L380 178L472 118" stroke="#74E2FF" stroke-width="3" stroke-linecap="round"/><path d="M208 148L186 286L294 248L412 300" stroke="#74E2FF" stroke-width="3" stroke-linecap="round"/><path d="M300 46L310 86H350L318 110L330 152L300 126L270 152L282 110L250 86H290L300 46Z" fill="#FFD56A"/></svg>
