<svg width="600" height="420" viewBox="0 0 600 420" fill="none" xmlns="http://www.w3.org/2000/svg"><rect width="600" height="420" fill="#091220"/><circle cx="300" cy="210" r="132" fill="#D9DDE4"/><circle cx="248" cy="164" r="18" fill="#B9BEC7"/><circle cx="364" cy="180" r="24" fill="#B9BEC7"/><circle cx="282" cy="252" r="30" fill="#B9BEC7"/><circle cx="378" cy="274" r="16" fill="#B9BEC7"/><circle cx="222" cy="260" r="14" fill="#B9BEC7"/><path d="M434 104C462 124 478 154 478 188C478 248 430 296 370 296C338 296 308 282 288 260C310 270 334 276 360 276C420 276 468 228 468 168C468 144 460 122 446 104H434Z" fill="#F8F9FB" fill-opacity="0.8"/></svg>
